<svg xmlns="http://www.w3.org/2000/svg" viewBox="0 0 360 179" width="360" height="179" role="img" aria-label="A task search open, with a scrolling row of client chips above the results and the pointer on No Traffic; the three results below are all called some form of Homepage and belong to three different clients">
  <!-- GENERATED by scripts/build-whatsnew-clientfilter.mjs - edit that, not this.
       Drawn at the picker's own life-size values and scaled as one piece. -->
  <rect x="0" y="0" width="256" height="38" rx="6" fill="#ffffff" stroke="#e5e7eb"/>
  <text x="10" y="24" font-family="system-ui, -apple-system, sans-serif" font-size="14" fill="#98a0b3">Which task?</text>
  <rect x="0" y="44" width="303" height="135" rx="12" fill="#ffffff" stroke="#e5e7eb"/>
  <rect x="5.5" y="49.5" width="99" height="27" rx="13.5" fill="none" stroke="#0b43ed" stroke-width="2"/><rect x="8" y="52" width="94" height="22" rx="11" fill="#ffffff" stroke="#e5e7eb"/><circle cx="18" cy="63" r="8" fill="#2f6df6"/><text x="18" y="66.2" font-family="system-ui, -apple-system, sans-serif" font-size="9" font-weight="600" fill="#ffffff" text-anchor="middle">N</text><text x="30" y="67" font-family="system-ui, -apple-system, sans-serif" font-size="12" font-weight="500" fill="#06112f">No Traffic</text>
  <rect x="108" y="52" width="68" height="22" rx="11" fill="#ffffff" stroke="#e5e7eb"/><circle cx="118" cy="63" r="8" fill="#1d32c8"/><text x="118" y="66.2" font-family="system-ui, -apple-system, sans-serif" font-size="9" font-weight="600" fill="#ffffff" text-anchor="middle">S</text><text x="130" y="67" font-family="system-ui, -apple-system, sans-serif" font-size="12" font-weight="500" fill="#06112f">Studio</text>
  <rect x="182" y="52" width="81" height="22" rx="11" fill="#ffffff" stroke="#e5e7eb"/><circle cx="192" cy="63" r="8" fill="#e0642b"/><text x="192" y="66.2" font-family="system-ui, -apple-system, sans-serif" font-size="9" font-weight="600" fill="#ffffff" text-anchor="middle">D</text><text x="204" y="67" font-family="system-ui, -apple-system, sans-serif" font-size="12" font-weight="500" fill="#06112f">DualBird</text>
  <rect x="269" y="52" width="68" height="22" rx="11" fill="#ffffff" stroke="#e5e7eb"/><circle cx="279" cy="63" r="8" fill="#16a34a"/><text x="279" y="66.2" font-family="system-ui, -apple-system, sans-serif" font-size="9" font-weight="600" fill="#ffffff" text-anchor="middle">V</text><text x="291" y="67" font-family="system-ui, -apple-system, sans-serif" font-size="12" font-weight="500" fill="#06112f">Visitt</text>
  <line x1="4" y1="80" x2="299" y2="80" stroke="#e5e7eb"/>
  <text x="10" y="104.5" font-family="system-ui, -apple-system, sans-serif" font-size="14" fill="#06112f">Homepage</text>
  <rect x="212" y="89" width="81" height="22" rx="11" fill="#ffffff" stroke="#e5e7eb"/><circle cx="222" cy="100" r="8" fill="#e0642b"/><text x="222" y="103.2" font-family="system-ui, -apple-system, sans-serif" font-size="9" font-weight="600" fill="#ffffff" text-anchor="middle">D</text><text x="234" y="104" font-family="system-ui, -apple-system, sans-serif" font-size="12" font-weight="500" fill="#06112f">DualBird</text>
  <text x="10" y="134.5" font-family="system-ui, -apple-system, sans-serif" font-size="14" fill="#06112f">Home page - design</text>
  <rect x="225" y="119" width="68" height="22" rx="11" fill="#ffffff" stroke="#e5e7eb"/><circle cx="235" cy="130" r="8" fill="#ef0bd0"/><text x="235" y="133.2" font-family="system-ui, -apple-system, sans-serif" font-size="9" font-weight="600" fill="#ffffff" text-anchor="middle">A</text><text x="247" y="134" font-family="system-ui, -apple-system, sans-serif" font-size="12" font-weight="500" fill="#06112f">Anchor</text>
  <text x="10" y="164.5" font-family="system-ui, -apple-system, sans-serif" font-size="14" fill="#06112f">Homepage stockholders sec…</text>
  <rect x="199" y="149" width="94" height="22" rx="11" fill="#ffffff" stroke="#e5e7eb"/><circle cx="209" cy="160" r="8" fill="#2f6df6"/><text x="209" y="163.2" font-family="system-ui, -apple-system, sans-serif" font-size="9" font-weight="600" fill="#ffffff" text-anchor="middle">N</text><text x="221" y="164" font-family="system-ui, -apple-system, sans-serif" font-size="12" font-weight="500" fill="#06112f">No Traffic</text>
  <g transform="translate(76 68)"><path d="M0 0 L0 15.5 L4.1 11.6 L6.7 17.5 L9.5 16.2 L6.9 10.5 L12.4 10.3 Z" fill="#06112f" stroke="#ffffff" stroke-width="1.4" stroke-linejoin="round"/></g>
</svg>
